<svg xmlns="http://www.w3.org/2000/svg" viewBox="0 0 240.46 71.6"><defs><style>.cls-1{fill:#fff;}.cls-2{fill:#fff;}</style></defs><g id="Layer_2" data-name="Layer 2"><g id="Layer_1-2" data-name="Layer 1"><path class="cls-1" d="M77.6,7.43a13.47,13.47,0,0,0-5.23-4.16A29.82,29.82,0,0,0,60.48.74C55,.6,49.57.52,44.11.41L25.61,0c-.44,0-.83,0-1,.53L21,11.9c2.6,0,4.93,0,7.26,0q13.13.24,26.25.51c2.33.05,4.68,0,6.91.83,2.92,1.15,3.88,3.29,2.78,6.19a7.44,7.44,0,0,1-3,3.61,12.82,12.82,0,0,1-7.33,2.17c-6.08,0-12.16-.2-18.25-.32l-17.75-.36a1.08,1.08,0,0,0-1.2.61Q8.56,40.38.32,55.58c-.48.89-.53,1.29.67,1.31,5,.09,10.08.24,15.12.36a1.67,1.67,0,0,0,1.65-.91q4.89-9.21,9.81-18.41a2.08,2.08,0,0,1,2.23-1.37,35.21,35.21,0,0,0,4.11.15c7.62-.14,15.24.83,22.85-.43a29.61,29.61,0,0,0,14.71-6.37c4.28-3.64,6.11-8.72,7.39-14C79.57,13,79.53,10,77.6,7.43Z"/><path class="cls-2" d="M175.4,38.45c1.23-2.63,2.58-5.22,3.78-7.87s2.71-5,3.35-7.75a3.91,3.91,0,0,0-2.81-5.06,15.34,15.34,0,0,0-6.43-.39,21.32,21.32,0,0,0-8.15,2.94c-.26.15-.66.87-1-.07a4.28,4.28,0,0,0-3.7-2.76,19.14,19.14,0,0,0-12.86,2.39c-.37.21-.75.39-1.35.71.49-1.08.87-1.89,1.31-2.85-3.19,0-6.22,0-9.25,0a1.29,1.29,0,0,0-1.4.86c-2.7,5.67-5.46,11.3-8.17,17a23.07,23.07,0,0,0-1.68,3.79c3.3,0,6.46,0,9.62,0a1.62,1.62,0,0,0,1.78-1.1c1.6-3.43,3.27-6.82,4.93-10.22a7.12,7.12,0,0,1,5.25-4.19,2.91,2.91,0,0,1,2.91.65c.8.89.13,1.81-.28,2.65q-2.67,5.62-5.41,11.23c-.35.71-.36,1,.58,1,2.88,0,5.76-.06,8.63,0A1.78,1.78,0,0,0,157,38.15c1.67-3.57,3.38-7.13,5.18-10.64A6.34,6.34,0,0,1,168,23.84c2.06,0,2.8,1.12,1.95,3s-1.75,3.67-2.63,5.51l-3.36,7c3.49,0,6.77,0,10,0A1.28,1.28,0,0,0,175.4,38.45Z"/><path class="cls-2" d="M211.38,17.7a15.38,15.38,0,0,0-7.17-.09,20,20,0,0,0-7,3.09l1.33-3a60.9,60.9,0,0,1-6.91,0c-2.52-.3-3.73.6-4.8,2.91-4,8.65-8.19,17.17-12.36,25.72-.49,1-.3,1.23.78,1.2,2.88-.06,5.75-.07,8.63,0a1.54,1.54,0,0,0,1.67-1.08c1.3-2.78,2.67-5.53,4-8.31.28-.62.48-.76,1-.21a5.18,5.18,0,0,0,2.48,1.36A16.93,16.93,0,0,0,205,38c5.81-2.79,9.51-7.31,10.62-13.74A5.49,5.49,0,0,0,211.38,17.7ZM204,27c-1.05,3-2.7,5.45-6,6.32a5,5,0,0,1-.86.15c-3.27.26-4.5-1.42-3.22-4.44,1.38-3.26,3.66-5.39,6.81-5.62C203.7,23.42,204.76,24.75,204,27Z"/><path class="cls-2" d="M130.23,28.57a8.19,8.19,0,0,0,1-5.28c-.58-3-2.68-4.59-5.42-5.23a27.52,27.52,0,0,0-21.25,3.17,16.4,16.4,0,0,0-7.57,9c-1.17,3.55.13,6.54,3.5,8.18a16.9,16.9,0,0,0,8,1.4,26.66,26.66,0,0,0,11-1.95C124.11,35.92,128,33.14,130.23,28.57Zm-18.91,5.5c-3,0-4.21-1.6-3.13-4.42,1.36-3.54,3.73-5.95,7.63-6.58a5.51,5.51,0,0,1,2.59.23,2.54,2.54,0,0,1,1.69,2.51A9.46,9.46,0,0,1,111.32,34.07Z"/><path class="cls-1" d="M53.21,14.61c-1.23,2.68-2.52,5.34-3.71,8v0a1.54,1.54,0,0,1-1.42.89H25.68c-7.34,0-14.67,0-22,0-1,0-1.4-.19-.89-1.26q2-4.21,3.92-8.5a1.49,1.49,0,0,1,1.57-1l44.12.4C53.72,13.27,53.78,13.37,53.21,14.61Z"/><path class="cls-2" d="M234.55,17.7l3.85-8.07c-.38.07-.54.08-.68.12-3.87,1.26-7.73,2.53-11.6,3.77a1.61,1.61,0,0,0-1.14,1.2c-.64,2.44-2.09,3.58-4.67,3a.8.8,0,0,0-1,.46q-1.15,2.49-2.38,4.95c-.33.66,0,.67.52.67.91,0,1.82.07,2.73.1.06,0,.15-.11.18-.09s.1.17,0,.27c-.17.42-.33.84-.51,1.26-1.39,3.11-3.19,6-4.18,9.31-.81,2.69.28,4.4,3,4.82A41,41,0,0,0,230,39.24a.68.68,0,0,0,.65-.48c.6-1.75,1.19-3.5,1.81-5.33-1.26.14-2.41.34-3.56.38-1.56,0-1.87-.44-1.21-1.9,1.15-2.49,2.37-4.95,3.52-7.44a1.05,1.05,0,0,1,1.16-.65c1.42,0,2.83,0,4.25,0,.37,0,.83.12,1-.29.93-1.88,1.81-3.78,2.79-5.84Z"/><path class="cls-2" d="M98.66,24.07c1.94-1.86,3.9-3.71,5.93-5.64A10.83,10.83,0,0,0,98,17.37c-2.32.31-4.16,1.6-6,2.88-.07.14-.22.32-.35.19s0-.37.16-.49c.1-.77.82-1.33.78-2.2-3.17,0-6.29,0-9.42,0-.58,0-.78.26-1,.7q-4.83,10.07-9.69,20.1c-.35.73-.14.83.55.83,3.12,0,6.25,0,9.38,0a1.07,1.07,0,0,0,1.1-.77c.9-1.92,1.83-3.83,2.74-5.74a24.77,24.77,0,0,1,4.08-6.54c2-2.12,4.33-3.2,7.28-2.15A.89.89,0,0,0,98.66,24.07Z"/><path class="cls-2" d="M31.4,52.11a11.11,11.11,0,0,1,2.06-.18,3.71,3.71,0,0,1,1.94.4,1.6,1.6,0,0,1,.91,1.45,2,2,0,0,1-1.58,1.86v0A1.71,1.71,0,0,1,36,57.39a2.17,2.17,0,0,1-1.07,1.86,5.31,5.31,0,0,1-3,.64,11.12,11.12,0,0,1-2-.14Zm.42,6.44a6.32,6.32,0,0,0,.64,0c.91,0,1.73-.36,1.73-1.23s-.65-1-1.43-1h-.52Zm.67-3.45h.56c.92,0,1.55-.39,1.55-1.07s-.45-.8-1.09-.8a3.49,3.49,0,0,0-.67.05Z"/><path class="cls-2" d="M41.45,59.51a5.06,5.06,0,0,1-2.14.45,2.21,2.21,0,0,1-2.45-2.41A3.42,3.42,0,0,1,40.18,54a1.76,1.76,0,0,1,2,1.71c0,1.45-1.41,2-3.71,1.91a1.08,1.08,0,0,0,1.28,1,3.47,3.47,0,0,0,1.6-.37ZM40,55.23a1.43,1.43,0,0,0-1.35,1.18c1.31,0,2-.16,2-.7C40.58,55.43,40.35,55.23,40,55.23Z"/><path class="cls-2" d="M44.57,54.14l.34,2.48c.09.59.14,1,.19,1.36h0c.13-.35.26-.71.51-1.33l1-2.51h1.77l-2,4.1a11.08,11.08,0,0,1-2.19,3.24,3.84,3.84,0,0,1-1.82,1L42,61a3.68,3.68,0,0,0,1-.44,3.24,3.24,0,0,0,.93-1,.39.39,0,0,0,0-.28l-1.12-5.17Z"/><path class="cls-2" d="M54.12,56.35A3.4,3.4,0,0,1,50.72,60a2.25,2.25,0,0,1-2.41-2.36,3.43,3.43,0,0,1,3.4-3.6A2.26,2.26,0,0,1,54.12,56.35Zm-4.07,1.22c0,.67.32,1.11.92,1.11.89,0,1.42-1.35,1.42-2.32,0-.52-.23-1.08-.9-1.08C50.53,55.28,50.05,56.69,50.05,57.57Z"/><path class="cls-2" d="M54.61,59.83,55.33,56c.15-.72.24-1.34.32-1.85h1.48l-.11.94h0A2.4,2.4,0,0,1,59,54a1.38,1.38,0,0,1,1.46,1.56,6.22,6.22,0,0,1-.09,1l-.63,3.31H58.09l.61-3.15a4.34,4.34,0,0,0,.06-.63c0-.41-.14-.69-.57-.69s-1.19.69-1.42,1.94l-.48,2.53Z"/><path class="cls-2" d="M67.86,51.57l-1.15,6a14.63,14.63,0,0,0-.27,2.21H64.9l.08-.92h0A2.18,2.18,0,0,1,63.09,60c-1,0-1.76-.77-1.76-2.15A3.67,3.67,0,0,1,64.92,54a2.47,2.47,0,0,1,.78.14l.5-2.57Zm-2.4,3.91a1.06,1.06,0,0,0-.66-.2c-1,0-1.72,1.16-1.72,2.26,0,.68.3,1.07.78,1.07s1.08-.51,1.3-1.61Z"/><path class="cls-2" d="M71.36,52.11a11.23,11.23,0,0,1,2.07-.18,3.73,3.73,0,0,1,1.94.4,1.62,1.62,0,0,1,.91,1.45,2,2,0,0,1-1.59,1.86v0a1.71,1.71,0,0,1,1.24,1.72,2.19,2.19,0,0,1-1.07,1.86,5.36,5.36,0,0,1-3,.64,11,11,0,0,1-2-.14Zm.42,6.44c.2,0,.4,0,.64,0,.91,0,1.74-.36,1.74-1.23s-.65-1-1.43-1H72.2Zm.68-3.45H73c.92,0,1.55-.39,1.55-1.07s-.46-.8-1.1-.8a3.37,3.37,0,0,0-.66.05Z"/><path class="cls-2" d="M82.66,56.35A3.41,3.41,0,0,1,79.26,60a2.25,2.25,0,0,1-2.41-2.36,3.42,3.42,0,0,1,3.4-3.6A2.27,2.27,0,0,1,82.66,56.35Zm-4.08,1.22c0,.67.33,1.11.92,1.11.9,0,1.42-1.35,1.42-2.32,0-.52-.23-1.08-.9-1.08C79.06,55.28,78.58,56.69,78.58,57.57Z"/><path class="cls-2" d="M89.33,54.14,88.6,58c-.13.72-.23,1.34-.3,1.85H86.82l.11-.92h0A2.48,2.48,0,0,1,85,60c-.92,0-1.47-.51-1.47-1.6a5.27,5.27,0,0,1,.12-1l.6-3.18h1.68l-.58,3a4.47,4.47,0,0,0-.08.76c0,.36.15.65.57.65s1.15-.69,1.37-1.82l.5-2.64Z"/><path class="cls-2" d="M89.66,59.83,90.39,56c.15-.72.23-1.34.31-1.85h1.48l-.11.94h0a2.4,2.4,0,0,1,2-1.07,1.38,1.38,0,0,1,1.47,1.56,6.26,6.26,0,0,1-.1,1l-.63,3.31H93.15l.6-3.15a3.28,3.28,0,0,0,.06-.63c0-.41-.14-.69-.57-.69s-1.19.69-1.42,1.94l-.48,2.53Z"/><path class="cls-2" d="M102.91,51.57l-1.15,6a16,16,0,0,0-.27,2.21H100l.08-.92h0A2.17,2.17,0,0,1,98.14,60c-1,0-1.76-.77-1.76-2.15A3.67,3.67,0,0,1,100,54a2.47,2.47,0,0,1,.78.14l.5-2.57Zm-2.4,3.91a1,1,0,0,0-.66-.2c-1,0-1.72,1.16-1.72,2.26,0,.68.3,1.07.78,1.07s1.08-.51,1.3-1.61Z"/><path class="cls-2" d="M106.49,59.83c0-.34,0-.72.07-1.13h0A2.16,2.16,0,0,1,104.61,60a1.77,1.77,0,0,1-1.72-2A3.85,3.85,0,0,1,107,54a6.77,6.77,0,0,1,1.88.28l-.59,3a14,14,0,0,0-.24,2.56Zm.48-4.5a2,2,0,0,0-.46,0c-1.08,0-1.87,1.33-1.87,2.39,0,.55.22.94.68.94s1.12-.57,1.39-2Z"/><path class="cls-2" d="M109.26,59.83l.64-3.39c.16-.86.23-1.81.29-2.3h1.45c0,.38,0,.77-.1,1.16h0A2.16,2.16,0,0,1,113.39,54h.31l-.32,1.63h-.27c-1.07,0-1.57,1-1.78,2.07l-.4,2.12Z"/><path class="cls-2" d="M113.56,59.83l1.09-5.69h1.67l-1.08,5.69Zm2.12-6.4a.78.78,0,0,1-.8-.82.94.94,0,0,1,1-1,.79.79,0,0,1,.85.83.93.93,0,0,1-1,.94Z"/><path class="cls-2" d="M121.41,59.51a5,5,0,0,1-2.13.45,2.21,2.21,0,0,1-2.46-2.41A3.42,3.42,0,0,1,120.14,54a1.75,1.75,0,0,1,2,1.71c0,1.45-1.41,2-3.7,1.91a1.21,1.21,0,0,0,.19.58,1.31,1.31,0,0,0,1.09.45,3.5,3.5,0,0,0,1.6-.37Zm-1.48-4.28a1.44,1.44,0,0,0-1.35,1.18c1.32,0,2-.16,2-.7C120.55,55.43,120.32,55.23,119.93,55.23Z"/><path class="cls-2" d="M122.69,58.33a3.71,3.71,0,0,0,1.48.4c.48,0,.72-.24.72-.52s-.18-.47-.71-.73A1.8,1.8,0,0,1,123,56c0-1.19,1-2,2.51-2a3.28,3.28,0,0,1,1.46.29l-.4,1.19a2.74,2.74,0,0,0-1.13-.25c-.46,0-.75.19-.75.5s.23.43.69.65c.63.32,1.28.77,1.28,1.57,0,1.3-1.11,2-2.62,2a3.4,3.4,0,0,1-1.74-.44Z"/><path class="cls-2" d="M127.38,59a1.14,1.14,0,0,1,1.13-1.17.94.94,0,0,1,1,1A1.11,1.11,0,0,1,128.31,60,.91.91,0,0,1,127.38,59Zm.71-3.76a1.14,1.14,0,0,1,1.13-1.17.94.94,0,0,1,1,1A1.11,1.11,0,0,1,129,56.2.91.91,0,0,1,128.09,55.24Z"/><path class="cls-2" d="M137.66,56.5h-2.78l-.36,1.9h3.13l-.27,1.43h-4.82L134.05,52h4.65l-.28,1.44h-3l-.32,1.67h2.8Z"/><path class="cls-2" d="M140.77,54.14l.34.85.36.95h0c.21-.3.36-.56.6-.91l.63-.89h1.92l-2.4,2.77,1.33,2.92h-1.84l-.36-.91c-.16-.4-.26-.7-.36-1h0c-.16.26-.31.56-.57,1l-.68,1H137.8l2.47-2.94-1.34-2.75Z"/><path class="cls-2" d="M143.84,62.14l1.11-5.8c.13-.68.26-1.67.33-2.25h1.5l-.11.87h0a2.3,2.3,0,0,1,1.82-1c1.24,0,1.84,1,1.84,2.17a3.53,3.53,0,0,1-3.3,3.78,2.33,2.33,0,0,1-1.05-.23h0l-.45,2.41Zm2.4-3.72a1.09,1.09,0,0,0,.77.27c.9,0,1.6-1.27,1.6-2.39,0-.45-.2-.93-.74-.93s-1.21.7-1.42,1.82Z"/><path class="cls-2" d="M150.85,59.83l1.59-8.26h1.67l-1.58,8.26Z"/><path class="cls-2" d="M160,56.35a3.41,3.41,0,0,1-3.4,3.61,2.25,2.25,0,0,1-2.41-2.36,3.42,3.42,0,0,1,3.4-3.6A2.27,2.27,0,0,1,160,56.35Zm-4.08,1.22c0,.67.33,1.11.92,1.11.9,0,1.42-1.35,1.42-2.32,0-.52-.23-1.08-.9-1.08C156.35,55.28,155.87,56.69,155.87,57.57Z"/><path class="cls-2" d="M160.45,59.83l.64-3.39c.16-.86.23-1.81.29-2.3h1.45c0,.38-.06.77-.1,1.16h0A2.16,2.16,0,0,1,164.58,54h.31l-.32,1.63h-.27c-1.07,0-1.57,1-1.78,2.07l-.4,2.12Z"/><path class="cls-2" d="M164.75,59.83l1.09-5.69h1.67l-1.08,5.69Zm2.12-6.4a.78.78,0,0,1-.8-.82.94.94,0,0,1,1-1,.79.79,0,0,1,.85.83.93.93,0,0,1-1,.94Z"/><path class="cls-2" d="M167.83,59.83l.72-3.84c.15-.72.23-1.34.31-1.85h1.48l-.1.94h0a2.41,2.41,0,0,1,2-1.07,1.38,1.38,0,0,1,1.47,1.56,6.26,6.26,0,0,1-.1,1L173,59.83h-1.69l.6-3.15a3.28,3.28,0,0,0,.06-.63c0-.41-.14-.69-.57-.69s-1.19.69-1.42,1.94l-.48,2.53Z"/><path class="cls-2" d="M174.76,60.62a3.56,3.56,0,0,0,1.49.32c.84,0,1.46-.38,1.7-1.52l.1-.49h0a1.89,1.89,0,0,1-1.63.85,1.87,1.87,0,0,1-1.82-2A3.65,3.65,0,0,1,178.39,54a5.42,5.42,0,0,1,2.1.4l-.86,4.69a4.08,4.08,0,0,1-1.2,2.52,3.53,3.53,0,0,1-2.2.64,4.14,4.14,0,0,1-1.86-.36Zm3.92-5.22a1.66,1.66,0,0,0-.61-.11c-1,0-1.73,1.13-1.73,2.2,0,.58.25,1,.76,1s1.1-.61,1.29-1.57Z"/><path class="cls-2" d="M186.24,52.59,186,54.13h1.23l-.26,1.28h-1.21l-.39,1.93a4.72,4.72,0,0,0-.09.72.43.43,0,0,0,.49.48,3.39,3.39,0,0,0,.45,0L186,59.83a3.44,3.44,0,0,1-1,.13c-1,0-1.49-.51-1.49-1.23a4.53,4.53,0,0,1,.13-1.06l.43-2.26h-.72l.23-1.28h.73l.21-1.07Z"/><path class="cls-2" d="M187.08,59.83l1.57-8.26h1.68l-.64,3.3h0a2.42,2.42,0,0,1,1.82-.86A1.37,1.37,0,0,1,193,55.55a8,8,0,0,1-.1,1l-.62,3.26h-1.68l.6-3.12a4,4,0,0,0,.07-.7c0-.38-.16-.65-.57-.65-.6,0-1.19.72-1.4,1.86l-.5,2.61Z"/><path class="cls-2" d="M198.4,59.51a5,5,0,0,1-2.13.45,2.21,2.21,0,0,1-2.46-2.41A3.42,3.42,0,0,1,197.13,54a1.76,1.76,0,0,1,2,1.71c0,1.45-1.41,2-3.7,1.91a1.3,1.3,0,0,0,.18.58,1.33,1.33,0,0,0,1.1.45,3.45,3.45,0,0,0,1.59-.37Zm-1.48-4.28a1.43,1.43,0,0,0-1.35,1.18c1.31,0,2-.16,2-.7C197.54,55.43,197.3,55.23,196.92,55.23Z"/><path class="cls-2" d="M203.16,52.12a10.24,10.24,0,0,1,2.1-.19,3.94,3.94,0,0,1,2.06.45,1.69,1.69,0,0,1,.87,1.53,2.31,2.31,0,0,1-1.78,2.22v0c.46.21.67.73.74,1.44a15.31,15.31,0,0,0,.31,2.23h-1.73a11.72,11.72,0,0,1-.22-1.85c-.08-.95-.41-1.25-1.07-1.25h-.51l-.58,3.1h-1.66Zm1,3.36h.69a1.41,1.41,0,0,0,1.57-1.32c0-.64-.52-.92-1.2-.92a2.48,2.48,0,0,0-.65.06Z"/><path class="cls-2" d="M213,59.51a5,5,0,0,1-2.13.45,2.21,2.21,0,0,1-2.46-2.41A3.42,3.42,0,0,1,211.76,54a1.75,1.75,0,0,1,2,1.71c0,1.45-1.41,2-3.7,1.91a1.21,1.21,0,0,0,.19.58,1.31,1.31,0,0,0,1.09.45,3.5,3.5,0,0,0,1.6-.37Zm-1.48-4.28a1.44,1.44,0,0,0-1.35,1.18c1.32,0,2-.16,2-.7C212.17,55.43,211.94,55.23,211.55,55.23Z"/><path class="cls-2" d="M217.84,59.83c0-.34,0-.72.07-1.13h0A2.18,2.18,0,0,1,216,60a1.77,1.77,0,0,1-1.72-2,3.85,3.85,0,0,1,4.08-4,6.77,6.77,0,0,1,1.88.28l-.59,3a13.18,13.18,0,0,0-.23,2.56Zm.48-4.5a2,2,0,0,0-.46,0c-1.08,0-1.87,1.33-1.87,2.39,0,.55.22.94.69.94s1.11-.57,1.38-2Z"/><path class="cls-2" d="M220.55,59.83l1.58-8.26h1.68l-1.58,8.26Z"/><path class="cls-2" d="M223.64,59.83l.71-3.84c.12-.72.22-1.34.29-1.85h1.43l-.11.92h0A2.32,2.32,0,0,1,227.94,54a1.22,1.22,0,0,1,1.35,1.08,2.39,2.39,0,0,1,2-1.08c.88,0,1.39.57,1.39,1.54a7.26,7.26,0,0,1-.1,1l-.61,3.32h-1.63l.57-3.12A3.94,3.94,0,0,0,231,56c0-.39-.18-.67-.56-.67-.56,0-1.12.74-1.34,1.9l-.48,2.58H227l.59-3.13a5.35,5.35,0,0,0,.07-.65c0-.4-.13-.7-.54-.7-.57,0-1.17.79-1.37,1.92l-.47,2.56Z"/><path class="cls-2" d="M58.28,68a3.4,3.4,0,0,1-3.4,3.61,2.25,2.25,0,0,1-2.41-2.36,3.42,3.42,0,0,1,3.4-3.6A2.27,2.27,0,0,1,58.28,68ZM54.2,69.21c0,.67.33,1.11.92,1.11.9,0,1.42-1.35,1.42-2.32,0-.52-.23-1.08-.89-1.08C54.68,66.92,54.2,68.33,54.2,69.21Z"/><path class="cls-2" d="M59,71.47l.84-4.42h-.75l.24-1.28h.75l0-.29a3,3,0,0,1,1-1.87,2.54,2.54,0,0,1,1.62-.53,2.21,2.21,0,0,1,.88.14l-.29,1.33a1.32,1.32,0,0,0-.53-.1c-.55,0-.88.47-1,1l-.06.28h1.13l-.24,1.28H61.47l-.83,4.42Z"/><path class="cls-2" d="M67,69.44l-.92,2h-1.8l3.82-7.84h2.16l.92,7.84H69.4l-.15-2Zm2.19-1.28L69,66.47c0-.43-.07-1.06-.1-1.54h0c-.19.48-.41,1.08-.62,1.54l-.78,1.69Z"/><path class="cls-2" d="M78.05,65.78l-.73,3.84c-.14.72-.23,1.34-.3,1.85H75.54l.11-.92h0a2.46,2.46,0,0,1-2,1.06c-.92,0-1.47-.51-1.47-1.59A5.28,5.28,0,0,1,72.32,69l.6-3.18H74.6l-.58,3a4.47,4.47,0,0,0-.08.76c0,.36.15.65.57.65s1.15-.69,1.37-1.82l.5-2.64Z"/><path class="cls-2" d="M81.61,64.23l-.29,1.54h1.22l-.26,1.28H81.07L80.69,69a3.83,3.83,0,0,0-.09.72c0,.28.11.48.49.48a3.46,3.46,0,0,0,.45,0l-.19,1.31a3.44,3.44,0,0,1-1,.13c-1,0-1.49-.51-1.49-1.23A5.14,5.14,0,0,1,79,69.31l.43-2.26h-.72l.23-1.28h.74l.21-1.07Z"/><path class="cls-2" d="M88.4,68A3.4,3.4,0,0,1,85,71.6a2.25,2.25,0,0,1-2.41-2.36,3.42,3.42,0,0,1,3.4-3.6A2.27,2.27,0,0,1,88.4,68Zm-4.08,1.22c0,.67.33,1.11.92,1.11.9,0,1.42-1.35,1.42-2.32,0-.52-.23-1.08-.9-1.08C84.8,66.92,84.32,68.33,84.32,69.21Z"/><path class="cls-2" d="M88.9,71.47l.71-3.84c.12-.72.22-1.34.29-1.85h1.43l-.11.92h0a2.35,2.35,0,0,1,2-1.06,1.22,1.22,0,0,1,1.35,1.08,2.39,2.39,0,0,1,2-1.08c.88,0,1.39.57,1.39,1.54a7.57,7.57,0,0,1-.1,1l-.61,3.31H95.57l.57-3.12a3.94,3.94,0,0,0,.08-.68c0-.4-.17-.68-.56-.68-.56,0-1.12.75-1.34,1.9l-.47,2.58H92.23l.59-3.13a5.35,5.35,0,0,0,.07-.65c0-.4-.13-.7-.54-.7-.57,0-1.17.79-1.37,1.92l-.47,2.56Z"/><path class="cls-2" d="M102.31,71.47c0-.33,0-.72.07-1.13h0a2.14,2.14,0,0,1-1.92,1.26,1.77,1.77,0,0,1-1.72-2,3.85,3.85,0,0,1,4.08-4,6.77,6.77,0,0,1,1.88.28l-.59,3a13.24,13.24,0,0,0-.23,2.56Zm.48-4.5a2,2,0,0,0-.46,0c-1.08,0-1.87,1.33-1.87,2.39,0,.56.22.94.68.94s1.12-.57,1.39-2Z"/><path class="cls-2" d="M108.27,64.23,108,65.77h1.22l-.26,1.28h-1.21L107.35,69a3.83,3.83,0,0,0-.09.72.42.42,0,0,0,.48.48,3.54,3.54,0,0,0,.46,0L108,71.47a3.44,3.44,0,0,1-1,.13c-1,0-1.49-.51-1.49-1.23a5.14,5.14,0,0,1,.13-1.06l.43-2.26h-.72l.23-1.28h.74l.21-1.07Z"/><path class="cls-2" d="M109.11,71.47l1.08-5.69h1.68l-1.09,5.69Zm2.12-6.4a.78.78,0,0,1-.81-.81,1,1,0,0,1,1-1,.8.8,0,0,1,.85.83.93.93,0,0,1-1,.94Z"/><path class="cls-2" d="M118.2,68a3.4,3.4,0,0,1-3.4,3.61,2.25,2.25,0,0,1-2.41-2.36,3.42,3.42,0,0,1,3.4-3.6A2.27,2.27,0,0,1,118.2,68Zm-4.08,1.22c0,.67.33,1.11.92,1.11.9,0,1.42-1.35,1.42-2.32,0-.52-.23-1.08-.89-1.08C114.6,66.92,114.12,68.33,114.12,69.21Z"/><path class="cls-2" d="M118.69,71.47l.72-3.84c.15-.72.23-1.34.31-1.85h1.48l-.1.94h0a2.41,2.41,0,0,1,2-1.07,1.38,1.38,0,0,1,1.47,1.56,8.17,8.17,0,0,1-.09,1l-.63,3.3h-1.69l.6-3.15a3.28,3.28,0,0,0,.06-.63c0-.41-.14-.69-.57-.69s-1.19.69-1.42,2l-.48,2.52Z"/><path class="cls-2" d="M131.13,71.47c0-.33.05-.72.07-1.13h0a2.16,2.16,0,0,1-1.92,1.26,1.77,1.77,0,0,1-1.73-2,3.85,3.85,0,0,1,4.08-4,6.79,6.79,0,0,1,1.89.28l-.6,3a14.08,14.08,0,0,0-.23,2.56Zm.48-4.5a2,2,0,0,0-.45,0c-1.09,0-1.88,1.33-1.88,2.39,0,.56.22.94.69.94s1.12-.57,1.38-2Z"/><path class="cls-2" d="M133.89,71.47l.72-3.84c.15-.72.24-1.34.32-1.85h1.48l-.11.94h0a2.43,2.43,0,0,1,2-1.07,1.38,1.38,0,0,1,1.47,1.56,6.47,6.47,0,0,1-.09,1l-.63,3.3h-1.69l.61-3.15a4.34,4.34,0,0,0,.06-.63c0-.41-.14-.69-.57-.69s-1.19.69-1.42,2l-.48,2.52Z"/><path class="cls-2" d="M147.14,63.21,146,69.26a14.63,14.63,0,0,0-.27,2.21h-1.54l.08-.92h0a2.18,2.18,0,0,1-1.87,1c-1,0-1.76-.77-1.76-2.15a3.67,3.67,0,0,1,3.58-3.81,2.38,2.38,0,0,1,.78.14l.5-2.57Zm-2.4,3.91a1.06,1.06,0,0,0-.66-.2c-1,0-1.73,1.17-1.73,2.26,0,.69.31,1.07.79,1.07s1.08-.51,1.3-1.61Z"/><path class="cls-2" d="M149.53,69.66a3.67,3.67,0,0,0,1.85.5c.65,0,1.24-.3,1.24-.91,0-.45-.33-.73-1.06-1.12a2.5,2.5,0,0,1-1.62-2.07c0-1.6,1.38-2.55,3.09-2.55a4,4,0,0,1,1.85.38l-.52,1.4A3.18,3.18,0,0,0,152.9,65c-.79,0-1.2.39-1.2.82s.48.74,1.14,1.12A2.35,2.35,0,0,1,154.4,69c0,1.74-1.44,2.64-3.19,2.64A4.07,4.07,0,0,1,149,71Z"/><path class="cls-2" d="M161.23,65.78l-.73,3.84c-.14.72-.23,1.34-.3,1.85h-1.48l.11-.92h0a2.43,2.43,0,0,1-2,1.06c-.92,0-1.47-.51-1.47-1.59A5.28,5.28,0,0,1,155.5,69l.6-3.18h1.68l-.58,3a4.47,4.47,0,0,0-.08.76c0,.36.15.65.57.65.57,0,1.15-.69,1.37-1.82l.5-2.64Z"/><path class="cls-2" d="M161.58,71.47l.64-3.38c.16-.87.23-1.82.29-2.31H164c0,.38-.06.77-.1,1.16h0a2.16,2.16,0,0,1,1.82-1.29H166l-.32,1.63h-.27c-1.07,0-1.57,1-1.78,2.07l-.4,2.12Z"/><path class="cls-2" d="M168.25,65.78l.26,2.49c.06.7.12,1.13.15,1.55h0c.15-.41.33-.84.64-1.54l1.14-2.5h1.87l-3.16,5.69h-1.71l-1-5.69Z"/><path class="cls-2" d="M176.74,71.15a4.87,4.87,0,0,1-2.13.45,2.21,2.21,0,0,1-2.45-2.41,3.42,3.42,0,0,1,3.32-3.54,1.75,1.75,0,0,1,2,1.71c0,1.45-1.4,2-3.7,1.91a1.24,1.24,0,0,0,.19.59,1.31,1.31,0,0,0,1.09.44,3.63,3.63,0,0,0,1.6-.36Zm-1.47-4.28a1.44,1.44,0,0,0-1.35,1.18c1.31,0,2-.16,2-.7C175.88,67.07,175.65,66.87,175.27,66.87Z"/><path class="cls-2" d="M177.81,71.47l1.09-5.69h1.67l-1.08,5.69Zm2.12-6.4a.77.77,0,0,1-.8-.81.94.94,0,0,1,1-1,.8.8,0,0,1,.85.83.93.93,0,0,1-1,.94Z"/><path class="cls-2" d="M180.9,71.47l1.58-8.26h1.68l-1.58,8.26Z"/><path class="cls-2" d="M184,71.47l1.58-8.26h1.68l-1.59,8.26Z"/><path class="cls-2" d="M190.81,71.47c0-.33,0-.72.07-1.13h0a2.14,2.14,0,0,1-1.92,1.26,1.77,1.77,0,0,1-1.72-2,3.85,3.85,0,0,1,4.08-4,6.77,6.77,0,0,1,1.88.28l-.59,3a13.24,13.24,0,0,0-.23,2.56Zm.48-4.5a2,2,0,0,0-.46,0c-1.08,0-1.87,1.33-1.87,2.39,0,.56.22.94.68.94s1.12-.57,1.39-2Z"/><path class="cls-2" d="M193.57,71.47l.72-3.84c.15-.72.23-1.34.31-1.85h1.48l-.1.94h0a2.4,2.4,0,0,1,2-1.07,1.38,1.38,0,0,1,1.47,1.56,6.52,6.52,0,0,1-.1,1l-.63,3.3h-1.68l.6-3.15a3.28,3.28,0,0,0,.06-.63c0-.41-.14-.69-.57-.69s-1.19.69-1.42,2l-.48,2.52Z"/><path class="cls-2" d="M204.34,71.29a4.06,4.06,0,0,1-1.62.3,2.21,2.21,0,0,1-2.4-2.33A3.58,3.58,0,0,1,204,65.65a3.68,3.68,0,0,1,1.17.19l-.42,1.29a2,2,0,0,0-2.7,1.94,1.07,1.07,0,0,0,1.11,1.18,3,3,0,0,0,1.13-.23Z"/><path class="cls-2" d="M209.84,71.15a4.87,4.87,0,0,1-2.13.45,2.21,2.21,0,0,1-2.46-2.41,3.43,3.43,0,0,1,3.32-3.54,1.76,1.76,0,0,1,2,1.71c0,1.45-1.41,2-3.7,1.91a1.24,1.24,0,0,0,.19.59,1.31,1.31,0,0,0,1.09.44,3.55,3.55,0,0,0,1.59-.36Zm-1.48-4.28A1.45,1.45,0,0,0,207,68.05c1.32,0,2-.16,2-.7C209,67.07,208.75,66.87,208.36,66.87Z"/></g></g></svg>